<svg width="21" height="18" viewBox="0 0 21 18" fill="none" xmlns="http://www.w3.org/2000/svg">
<path fill-rule="evenodd" clip-rule="evenodd" d="M12.7234 2.4675L13.2864 3H15.2687C15.7049 3 16.0617 3.3375 16.0617 3.75C16.0617 4.1625 15.7049 4.5 15.2687 4.5H5.7534C5.31727 4.5 4.96045 4.1625 4.96045 3.75C4.96045 3.3375 5.31727 3 5.7534 3H7.73576L8.29875 2.4675C8.44148 2.3325 8.64765 2.25 8.85381 2.25H12.1683C12.3745 2.25 12.5807 2.3325 12.7234 2.4675ZM5.7534 14.25C5.7534 15.075 6.46705 15.75 7.33929 15.75H13.6829C14.5551 15.75 15.2687 15.075 15.2687 14.25V6.75C15.2687 5.925 14.5551 5.25 13.6829 5.25H7.33929C6.46705 5.25 5.7534 5.925 5.7534 6.75V14.25ZM8.13223 6.75H12.8899C13.326 6.75 13.6829 7.0875 13.6829 7.5V13.5C13.6829 13.9125 13.326 14.25 12.8899 14.25H8.13223C7.69611 14.25 7.33929 13.9125 7.33929 13.5V7.5C7.33929 7.0875 7.69611 6.75 8.13223 6.75Z" fill="#888888"/>
</svg>
