<svg width="28" height="28" viewBox="0 0 28 28" fill="none" xmlns="http://www.w3.org/2000/svg">
<path fill-rule="evenodd" clip-rule="evenodd" d="M3.2085 7C3.2085 6.03167 3.99016 5.25 4.9585 5.25C5.92683 5.25 6.7085 6.03167 6.7085 7C6.7085 7.96833 5.92683 8.75 4.9585 8.75C3.99016 8.75 3.2085 7.96833 3.2085 7ZM3.2085 14C3.2085 13.0317 3.99016 12.25 4.9585 12.25C5.92683 12.25 6.7085 13.0317 6.7085 14C6.7085 14.9683 5.92683 15.75 4.9585 15.75C3.99016 15.75 3.2085 14.9683 3.2085 14ZM4.9585 19.25C3.99016 19.25 3.2085 20.0433 3.2085 21C3.2085 21.9567 4.00183 22.75 4.9585 22.75C5.91516 22.75 6.7085 21.9567 6.7085 21C6.7085 20.0433 5.92683 19.25 4.9585 19.25ZM23.6252 22.1667H9.62516C8.9835 22.1667 8.4585 21.6417 8.4585 21C8.4585 20.3583 8.9835 19.8333 9.62516 19.8333H23.6252C24.2668 19.8333 24.7918 20.3583 24.7918 21C24.7918 21.6417 24.2668 22.1667 23.6252 22.1667ZM9.62516 15.1667H23.6252C24.2668 15.1667 24.7918 14.6417 24.7918 14C24.7918 13.3583 24.2668 12.8333 23.6252 12.8333H9.62516C8.9835 12.8333 8.4585 13.3583 8.4585 14C8.4585 14.6417 8.9835 15.1667 9.62516 15.1667ZM9.62516 8.16667C8.9835 8.16667 8.4585 7.64167 8.4585 7C8.4585 6.35833 8.9835 5.83333 9.62516 5.83333H23.6252C24.2668 5.83333 24.7918 6.35833 24.7918 7C24.7918 7.64167 24.2668 8.16667 23.6252 8.16667H9.62516Z" fill="#FFFFFE" fill-opacity="0.54"/>
</svg>
