<svg width="28" height="28" viewBox="0 0 28 28" fill="none" xmlns="http://www.w3.org/2000/svg">
<path fill-rule="evenodd" clip-rule="evenodd" d="M17.1382 2.24672C18.1882 3.25006 19.1215 4.37006 19.9382 5.57172C22.0732 8.73339 23.3332 12.5134 23.3332 16.5851C23.3332 21.7417 19.1565 25.9184 13.9998 25.9184C8.84317 25.9184 4.6665 21.7417 4.6665 16.5851C4.6665 13.6217 5.45984 10.8451 6.84817 8.46506C7.03484 8.12672 7.23317 7.81172 7.44317 7.49672C7.72317 7.06506 8.36484 7.21672 8.49317 7.70672C8.56317 7.96339 8.60984 8.10339 8.7265 8.33672C9.36817 9.88839 10.8382 10.9734 12.6348 10.9734C15.0382 10.9734 16.6132 9.02506 16.6132 6.62172C16.6132 5.32672 16.3798 3.88006 16.1582 2.78339C16.0415 2.22339 16.7298 1.85006 17.1382 2.24672ZM9.90484 18.7551C9.90484 20.7851 11.5848 22.4184 13.6615 22.4184C16.7532 22.4184 19.2615 19.9101 19.2498 16.8184C19.2498 15.5701 19.1098 14.3334 18.8415 13.1434C18.7482 12.7117 18.2115 12.5717 17.8848 12.8751C16.6598 14.0301 14.8982 14.7651 13.1832 15.1151C11.1298 15.5351 9.90484 16.8651 9.90484 18.7551Z" fill="#FFFFFE" fill-opacity="0.54"/>
</svg>
