<svg width="14" height="14" viewBox="0 0 14 14" fill="none" xmlns="http://www.w3.org/2000/svg">
<path d="M12.5002 7.91665H7.91683V12.5C7.91683 13.0041 7.50433 13.4166 7.00016 13.4166C6.496 13.4166 6.0835 13.0041 6.0835 12.5V7.91665H1.50016C0.995996 7.91665 0.583496 7.50415 0.583496 6.99998C0.583496 6.49581 0.995996 6.08331 1.50016 6.08331H6.0835V1.49998C6.0835 0.995813 6.496 0.583313 7.00016 0.583313C7.50433 0.583313 7.91683 0.995813 7.91683 1.49998V6.08331H12.5002C13.0043 6.08331 13.4168 6.49581 13.4168 6.99998C13.4168 7.50415 13.0043 7.91665 12.5002 7.91665Z" fill="#00214D"/>
</svg>
