<svg width="32" height="32" viewBox="0 0 32 32" fill="none" xmlns="http://www.w3.org/2000/svg">
<path d="M24.4 7.61334C24.1509 7.36367 23.8127 7.22336 23.46 7.22336C23.1073 7.22336 22.7691 7.36367 22.52 7.61334L16 14.12L9.47996 7.6C9.23085 7.35033 8.89265 7.21002 8.53996 7.21002C8.18727 7.21002 7.84907 7.35033 7.59996 7.6C7.07996 8.12 7.07996 8.96 7.59996 9.48L14.12 16L7.59996 22.52C7.07996 23.04 7.07996 23.88 7.59996 24.4C8.11996 24.92 8.95996 24.92 9.47996 24.4L16 17.88L22.52 24.4C23.04 24.92 23.88 24.92 24.4 24.4C24.92 23.88 24.92 23.04 24.4 22.52L17.88 16L24.4 9.48C24.9066 8.97334 24.9066 8.12 24.4 7.61334Z" fill="black" fill-opacity="0.54"/>
</svg>
