<svg width="20" height="18" viewBox="0 0 20 18" fill="none" xmlns="http://www.w3.org/2000/svg">
<path fill-rule="evenodd" clip-rule="evenodd" d="M2.26025 9C2.26025 4.86 5.80471 1.5 10.1818 1.5C14.5667 1.5 18.1191 4.86 18.1191 9C18.1191 13.14 14.5667 16.5 10.1818 16.5C5.80471 16.5 2.26025 13.14 2.26025 9ZM10.9826 6C10.9826 5.5875 10.6258 5.25 10.1897 5.25C9.75357 5.25 9.39674 5.5875 9.39674 6V9C9.39674 9.4125 9.75357 9.75 10.1897 9.75C10.6258 9.75 10.9826 9.4125 10.9826 9V6ZM10.1897 15C6.68488 15 3.84614 12.315 3.84614 9C3.84614 5.685 6.68488 3 10.1897 3C13.6945 3 16.5332 5.685 16.5332 9C16.5332 12.315 13.6945 15 10.1897 15ZM9.39674 11.25V12.75H10.9826V11.25H9.39674Z" fill="#888888"/>
</svg>
