<svg width="17" height="16" viewBox="0 0 17 16" fill="none" xmlns="http://www.w3.org/2000/svg">
<path fill-rule="evenodd" clip-rule="evenodd" d="M0.260254 8C0.260254 3.86 3.80471 0.5 8.18176 0.5C12.5667 0.5 16.1191 3.86 16.1191 8C16.1191 12.14 12.5667 15.5 8.18176 15.5C3.80471 15.5 0.260254 12.14 0.260254 8ZM8.98263 5C8.98263 4.5875 8.62581 4.25 8.18969 4.25C7.75357 4.25 7.39674 4.5875 7.39674 5V8C7.39674 8.4125 7.75357 8.75 8.18969 8.75C8.62581 8.75 8.98263 8.4125 8.98263 8V5ZM8.18969 14C4.68488 14 1.84614 11.315 1.84614 8C1.84614 4.685 4.68488 2 8.18969 2C11.6945 2 14.5332 4.685 14.5332 8C14.5332 11.315 11.6945 14 8.18969 14ZM7.39674 10.25V11.75H8.98263V10.25H7.39674Z" fill="#888888"/>
</svg>
