<svg width="28" height="28" viewBox="0 0 28 28" fill="none" xmlns="http://www.w3.org/2000/svg">
<path fill-rule="evenodd" clip-rule="evenodd" d="M20.9998 2.34504L6.99984 2.33337C5.7165 2.33337 4.6665 3.37171 4.6665 4.66671V23.3334C4.6665 24.6167 5.7165 25.6667 6.99984 25.6667H20.9998C22.2832 25.6667 23.3332 24.6167 23.3332 23.3334V4.66671C23.3332 3.37171 22.2832 2.34504 20.9998 2.34504ZM19.8332 23.3334H8.1665C7.52484 23.3334 6.99984 22.8084 6.99984 22.1667V13.9767C6.99984 13.335 7.52484 12.81 8.1665 12.81H19.8332C20.4748 12.81 20.9998 13.335 20.9998 13.9767V22.1667C20.9998 22.8084 20.4748 23.3334 19.8332 23.3334ZM8.1665 10.5H19.8332C20.4748 10.5 20.9998 9.97504 20.9998 9.33337V5.83337C20.9998 5.19171 20.4748 4.66671 19.8332 4.66671H8.1665C7.52484 4.66671 6.99984 5.19171 6.99984 5.83337V9.33337C6.99984 9.97504 7.52484 10.5 8.1665 10.5ZM10.4998 5.83337C11.1415 5.83337 11.6665 6.35837 11.6665 7.00004V8.16671C11.6665 8.80837 11.1415 9.33337 10.4998 9.33337C9.85817 9.33337 9.33317 8.80837 9.33317 8.16671V7.00004C9.33317 6.35837 9.85817 5.83337 10.4998 5.83337ZM11.6665 15.1667C11.6665 14.525 11.1415 14 10.4998 14C9.85817 14 9.33317 14.525 9.33317 15.1667V18.6667C9.33317 19.3084 9.85817 19.8334 10.4998 19.8334C11.1415 19.8334 11.6665 19.3084 11.6665 18.6667V15.1667Z" fill="#FFFFFE" fill-opacity="0.54"/>
</svg>
