<svg width="28" height="28" viewBox="0 0 28 28" fill="none" xmlns="http://www.w3.org/2000/svg">
<path fill-rule="evenodd" clip-rule="evenodd" d="M23.3269 11.9641L15.4402 18.1008C14.6002 18.7658 13.4102 18.7658 12.5702 18.1125L4.68358 11.9758C4.08858 11.5091 4.08858 10.5991 4.68358 10.1325L12.5702 3.98414C13.4219 3.33081 14.6002 3.33081 15.4402 3.98414L23.3269 10.1208C23.9219 10.5875 23.9219 11.4975 23.3269 11.9641ZM13.2707 21.6241C13.6907 21.9508 14.2857 21.9508 14.7057 21.6241L21.8807 16.0358C22.2989 15.7092 22.8858 15.7092 23.304 16.0358L23.3157 16.0475C23.9107 16.5141 23.9107 17.4125 23.3157 17.8791L15.429 24.0158C14.5773 24.6691 13.399 24.6691 12.559 24.0158L4.67232 17.8791C4.07732 17.4125 4.07732 16.5141 4.67232 16.0475C5.09055 15.7208 5.67744 15.7208 6.09566 16.0475L13.2707 21.6241Z" fill="#FFFFFE" fill-opacity="0.54"/>
</svg>
