<svg width="27" height="28" viewBox="0 0 27 28" fill="none" xmlns="http://www.w3.org/2000/svg">
<path fill-rule="evenodd" clip-rule="evenodd" d="M12.0803 4.54847C12.0803 3.92347 12.5744 3.41211 13.1783 3.41211C13.7822 3.41211 14.2763 3.92347 14.2763 4.54847V13.6394C14.2763 14.2644 13.7822 14.7757 13.1783 14.7757C12.5744 14.7757 12.0803 14.2644 12.0803 13.6394V4.54847ZM18.8112 8.24165C18.405 7.79847 18.394 7.10529 18.8222 6.66211C19.2614 6.20756 19.9861 6.21892 20.4034 6.68483C22.0504 8.50302 23.0606 10.9348 23.0606 13.628C23.0606 19.3894 18.4599 24.0371 12.8599 23.8553C7.50143 23.6848 3.14221 18.8894 3.29594 13.3439C3.3728 10.7644 4.37202 8.43483 5.96417 6.68483C6.38143 6.21892 7.09515 6.20756 7.53437 6.66211C7.95162 7.09392 7.95162 7.78711 7.54535 8.23029C6.27162 9.65074 5.49202 11.5485 5.49202 13.6394C5.49202 18.0712 8.98378 21.6507 13.2771 21.5826C17.4826 21.5371 20.9634 17.7871 20.8646 13.4348C20.8206 11.4235 20.052 9.60529 18.8112 8.24165Z" fill="#FFFFFE"/>
</svg>
