<svg width="28" height="28" viewBox="0 0 28 28" fill="none" xmlns="http://www.w3.org/2000/svg">
<path fill-rule="evenodd" clip-rule="evenodd" d="M23.3335 8.16667H18.6668C18.6668 5.58833 16.5785 3.5 14.0002 3.5C11.4218 3.5 9.3335 5.58833 9.3335 8.16667H4.66683C3.3835 8.16667 2.3335 9.21667 2.3335 10.5V14C2.3335 15.295 3.37183 16.3333 4.66683 16.3333H11.6668V15.1667C11.6668 14.525 12.1918 14 12.8335 14H15.1668C15.8085 14 16.3335 14.525 16.3335 15.1667V16.3333H23.3335C24.6168 16.3333 25.6668 15.2833 25.6668 14V10.5C25.6668 9.21667 24.6168 8.16667 23.3335 8.16667ZM12.8335 18.6667C12.1918 18.6667 11.6668 18.1417 11.6668 17.5H3.51183V22.1667C3.51183 23.45 4.56183 24.5 5.84516 24.5H22.1668C23.4502 24.5 24.5002 23.45 24.5002 22.1667V17.5H16.3335C16.3335 18.1417 15.8085 18.6667 15.1668 18.6667H12.8335ZM14.0002 5.83333C12.7168 5.83333 11.6668 6.88333 11.6668 8.16667H16.3335C16.3335 6.88333 15.2835 5.83333 14.0002 5.83333Z" fill="#FFFFFE"/>
</svg>
